<?xml version="1.0" encoding="utf-8"?>
<svg id="master-artboard" viewBox="0 0 598.3392333984375 491.1646423339844" version="1.1" xmlns="http://www.w3.org/2000/svg" x="0px" y="0px" style="enable-background:new 0 0 1400 980;" width="598.3392333984375px" height="491.1646423339844px"><rect id="ee-background" x="0" y="0" width="598.3392333984375" height="491.1646423339844" style="fill: rgb(255, 196, 94); fill-opacity: 0; pointer-events: none;"/>























































































































<path d="M 260.79998779296875 86.19999694824219" style="fill: rgb(23, 168, 247); fill-opacity: 1; stroke: rgb(0, 0, 0); stroke-opacity: 1; stroke-width: 0; paint-order: fill;" transform="matrix(1, 0, 0, 1, -138.58811950683594, -60.39303922653198)"/><g transform="matrix(1, 0, 0, 1, -216.783203125, -68.21254682540894)"><path d="M 465.7453308105469 279.28179931640625 L 465.7453308105469 448.50921630859375" style="fill: rgb(43, 40, 42); fill-opacity: 1; stroke: rgb(0, 0, 0); stroke-opacity: 1; stroke-width: 0; paint-order: fill;" transform="matrix(5.091946125030518, 0, 0, -2.331064462661743, -1588.0146484375, 1350.75634765625)"/><path d="M 489.2491455078125 139.8258819580078 L 489.2491455078125 139.8258819580078 L 489.2491455078125 550.4905395507812" style="fill: rgb(43, 40, 42); fill-opacity: 1; stroke: rgb(0, 0, 0); stroke-opacity: 1; stroke-width: 20; paint-order: stroke;" transform="matrix(4.658199310302734, 0, 0, -2.132497549057007, -2017.43310546875, 1238.5413818359375)"/><path d="M 489.2491455078125 139.8258819580078 L 489.2491455078125 139.8258819580078 L 489.2491455078125 550.4905395507812" style="fill: rgb(43, 40, 42); fill-opacity: 1; stroke: rgb(0, 0, 0); stroke-opacity: 1; stroke-width: 10; paint-order: stroke;" transform="matrix(4.658199310302734, 0, 0, -2.132497549057007, -1854.612060546875, 1238.5413818359375)"/><path d="M 489.2491455078125 139.8258819580078 L 489.2491455078125 139.8258819580078 L 489.2491455078125 550.4905395507812" style="fill: rgb(43, 40, 42); fill-opacity: 1; stroke: rgb(0, 0, 0); stroke-opacity: 1; stroke-width: 10; paint-order: stroke;" transform="matrix(4.658199310302734, 0, 0, -2.132497549057007, -1692.97509765625, 1238.5413818359375)"/><path d="M 489.2491455078125 139.8258819580078 L 489.2491455078125 139.8258819580078 L 489.2491455078125 550.4905395507812" style="fill: rgb(43, 40, 42); fill-opacity: 1; stroke: rgb(0, 0, 0); stroke-opacity: 1; stroke-width: 20; paint-order: stroke;" transform="matrix(4.658199310302734, 0, 0, -2.132497549057007, -1509.287841796875, 1238.5413818359375)"/></g><path d="M 194.40847778320312 292.67559814453125 L 194.40847778320312 292.67559814453125" style="fill: rgb(0, 0, 0); fill-opacity: 1; stroke: rgb(0, 0, 0); stroke-opacity: 1; stroke-width: 30; paint-order: fill;"/></svg>