<?xml version="1.0" encoding="UTF-8" standalone="no"?>
<!DOCTYPE svg PUBLIC "-//W3C//DTD SVG 1.1//EN" "http://www.w3.org/Graphics/SVG/1.1/DTD/svg11.dtd">
<svg version="1.1" xmlns="http://www.w3.org/2000/svg" xmlns:xlink="http://www.w3.org/1999/xlink" preserveAspectRatio="xMidYMid meet" viewBox="113.91489361702139 338.13475177304986 115.54255319148939 114.49999999999989" width="110.04" height="109"><defs><path d="M192.57 366.63C196.35 366.63 199.41 369.7 199.41 373.48C199.41 388.71 199.41 427.56 199.41 442.79C199.41 446.57 196.35 449.63 192.57 449.63C177.34 449.63 138.49 449.63 123.26 449.63C119.48 449.63 116.41 446.57 116.41 442.79C116.41 427.56 116.41 388.71 116.41 373.48C116.41 369.7 119.48 366.63 123.26 366.63C138.49 366.63 177.34 366.63 192.57 366.63Z" id="a1Xcqch4q4"></path><path d="M219.61 340.63C223.39 340.63 226.46 343.7 226.46 347.48C226.46 362.71 226.46 401.56 226.46 416.79C226.46 420.57 223.39 423.63 219.61 423.63C204.38 423.63 165.53 423.63 150.3 423.63C146.52 423.63 143.46 420.57 143.46 416.79C143.46 401.56 143.46 362.71 143.46 347.48C143.46 343.7 146.52 340.63 150.3 340.63C165.53 340.63 204.38 340.63 219.61 340.63Z" id="d9IQX4ZeYv"></path></defs><g><g><g><use xlink:href="#a1Xcqch4q4" opacity="1" fill-opacity="0" stroke="#6aba4b" stroke-width="5" stroke-opacity="1"></use></g></g><g><g><use xlink:href="#d9IQX4ZeYv" opacity="1" fill-opacity="0" stroke="#6aba4b" stroke-width="5" stroke-opacity="1"></use></g></g></g></svg>