<?xml version="1.0" encoding="UTF-8" standalone="no"?>
<!-- Generator: Gravit.io -->
<svg xmlns="http://www.w3.org/2000/svg" xmlns:xlink="http://www.w3.org/1999/xlink" style="isolation:isolate" viewBox="0 0 60 60" width="60pt" height="60pt"><defs><clipPath id="_clipPath_8zpy21xTqEgyeGXJb1H0xgBvDyAyQxkH"><rect width="60" height="60"/></clipPath></defs><g clip-path="url(#_clipPath_8zpy21xTqEgyeGXJb1H0xgBvDyAyQxkH)"><rect width="60" height="60" style="fill:rgb(0,0,0)" fill-opacity="0"/><g><g><mask id="_mask_4i0HdhJiLwU41lopsqrzcbFLYZRHX7T4"><ellipse vector-effect="non-scaling-stroke" cx="16.858489531936463" cy="10.987026373556455" rx="8.366162790697675" ry="10.987026373556454" fill="white" stroke="none"/></mask><ellipse vector-effect="non-scaling-stroke" cx="16.858489531936463" cy="10.987026373556455" rx="8.366162790697675" ry="10.987026373556454" fill="rgb(255,255,255)"/><ellipse vector-effect="non-scaling-stroke" cx="16.858489531936463" cy="10.987026373556455" rx="8.366162790697675" ry="10.987026373556454" fill="rgb(255,255,255)" mask="url(#_mask_4i0HdhJiLwU41lopsqrzcbFLYZRHX7T4)" stroke-width="8" stroke="rgb(255,255,255)" stroke-linejoin="miter" stroke-linecap="square" stroke-miterlimit="3"/><path d=" M 15.323 21.974 L 13.788 56.309 C 13.962 57.976 15.001 58.906 16.858 59.055 C 18.742 58.753 19.781 57.852 19.929 56.309 L 18.394 21.974 L 15.323 21.974 Z " fill="rgb(255,255,255)" vector-effect="non-scaling-stroke" stroke-width="2" stroke="rgb(255,255,255)" stroke-linejoin="miter" stroke-linecap="square" stroke-miterlimit="3"/></g><g><path d=" M 43.132 21.628 L 41.572 56.512 C 41.749 58.206 42.805 59.15 44.692 59.302 C 46.606 58.996 47.662 58.079 47.812 56.512 L 46.252 21.628 L 43.132 21.628 Z " fill="rgb(255,255,255)" vector-effect="non-scaling-stroke" stroke-width="2" stroke="rgb(255,255,255)" stroke-linejoin="miter" stroke-linecap="square" stroke-miterlimit="3"/><path d=" M 43.317 23 L 40.597 22 Q 39.019 21.668 38.477 21 Q 37.97 20.375 37.877 18.837 L 37.877 0.698 L 40.597 0.698 L 40.597 16.047 L 43.317 16.047 L 43.317 0.698 L 46.037 0.698 L 46.037 16.047 L 48.757 16.047 L 48.757 0.698 L 51.477 0.698 Q 51.538 12.162 51.477 18.837 C 51.469 19.679 51.061 20.388 50.477 21 Q 49.984 21.516 48.757 22 L 46.037 23 L 43.317 23 Z " fill="rgb(255,255,255)" vector-effect="non-scaling-stroke" stroke-width="1" stroke="rgb(255,255,255)" stroke-linejoin="miter" stroke-linecap="square" stroke-miterlimit="3"/></g></g></g></svg>