<?xml version="1.0" encoding="UTF-8" standalone="no"?>
<!DOCTYPE svg PUBLIC "-//W3C//DTD SVG 1.1//EN" "http://www.w3.org/Graphics/SVG/1.1/DTD/svg11.dtd">
<svg version="1.1" xmlns="http://www.w3.org/2000/svg" xmlns:xlink="http://www.w3.org/1999/xlink" preserveAspectRatio="xMidYMid meet" viewBox="0 0 1152 1152" width="1152" height="1152"><defs><path d="M489.67 312.31L990.06 182.34L1061.55 994.66L665.13 1105.14L327.21 357.8L489.67 312.31L262.22 58.86L73.76 240.82" id="a8mNaQPzi"></path><path d="M1037.02 698.7C991.89 720.56 963.68 734.22 952.4 739.68C910.41 760.02 864 769.5 817.4 767.27C806.98 766.77 831.61 767.95 817.4 767.27C783.66 765.65 750.37 775.57 723.02 795.4C703.15 809.8 653.48 845.8 574 903.41" id="a1ir5p0U0R"></path><path d="M1018.74 524.05C955.54 562.98 916.04 587.31 900.23 597.04C866.04 618.1 824.49 623.56 786.02 612.05C771.35 607.67 779.44 610.08 762.67 605.07C730.94 595.58 696.64 600.44 668.79 618.36C645.91 633.08 588.73 669.88 497.23 728.76" id="djQX4dVU2"></path></defs><g><g><g><g><g><use xlink:href="#a8mNaQPzi" opacity="1" fill-opacity="0" stroke="#000000" stroke-width="69.12" stroke-opacity="1"></use></g></g><g><g><use xlink:href="#a1ir5p0U0R" opacity="1" fill-opacity="0" stroke="#000000" stroke-width="69.12" stroke-opacity="1"></use></g></g><g><g><use xlink:href="#djQX4dVU2" opacity="1" fill-opacity="0" stroke="#000000" stroke-width="69.12" stroke-opacity="1"></use></g></g></g></g></g></svg>