<?xml version="1.0" encoding="UTF-8" standalone="no"?>
<!-- Generator: Gravit.io -->
<svg xmlns="http://www.w3.org/2000/svg" xmlns:xlink="http://www.w3.org/1999/xlink" style="isolation:isolate" viewBox="0 0 60 60" width="60pt" height="60pt"><defs><clipPath id="_clipPath_RbYl8b65U2MtwOJFZrtggu47101QNDBS"><rect width="60" height="60"/></clipPath></defs><g clip-path="url(#_clipPath_RbYl8b65U2MtwOJFZrtggu47101QNDBS)"><rect width="60" height="60" style="fill:rgb(0,0,0)" fill-opacity="0"/><path d=" M 26.749 55.443 Q 21.004 50.801 18.798 47.492 C 15.822 43.029 13.666 38.605 14.027 33.18 C 14.265 29.616 15.464 26.737 17.208 23.639 C 19.229 20.048 22.504 17.972 25 15 Q 27.973 12.346 29.929 4.557 Q 33.981 9.272 34.7 12.508 C 35.189 14.707 34.766 16.631 34.7 18.869 C 34.54 24.303 25.281 35.531 29.929 36 C 40.213 37.038 40.697 21.429 41 25 C 41.815 34.59 43.708 41.238 37 45 Q 28.788 49.605 26.749 55.443 Z " fill="rgb(255,255,255)" vector-effect="non-scaling-stroke" stroke-width="2" stroke="rgb(255,255,255)" stroke-linejoin="miter" stroke-linecap="square" stroke-miterlimit="3"/></g></svg>