<?xml version="1.0" encoding="UTF-8" standalone="no"?>
<!DOCTYPE svg PUBLIC "-//W3C//DTD SVG 1.1//EN" "http://www.w3.org/Graphics/SVG/1.1/DTD/svg11.dtd">
<svg version="1.1" xmlns="http://www.w3.org/2000/svg" xmlns:xlink="http://www.w3.org/1999/xlink" preserveAspectRatio="xMidYMid meet" viewBox="0 0 508 289" width="508" height="289"><defs><path d="M8.9 184.8C1.92 209.62 6.57 237.55 21.31 257.72C23.64 260.82 25.97 263.93 29.07 266.25C29.07 266.25 29.85 267.03 29.85 267.03C40.71 276.34 53.12 281.77 66.31 281.77C67.29 281.77 72.2 281.77 81.05 281.77C319.83 281.77 452.48 281.77 479.01 281.77C484.44 281.77 490.65 279.44 494.53 274.79C499.96 269.36 502.28 261.6 502.28 253.07C493.75 115.76 399.88 7.93 288.17 7.93C262.57 14.91 72.51 -37.07 8.9 184.8ZM181.12 43.61C168.71 52.92 157.07 63.01 146.21 75.42C148.54 69.99 150.09 64.56 151.64 59.13C153.19 51.37 154.74 42.84 158.62 40.51C163.28 38.18 174.14 42.06 181.12 43.61ZM198.96 31.98C193.53 31.98 185.77 28.87 178.02 26.55C198.19 22.67 212.15 23.44 212.93 23.44C209.05 28.1 212.15 24.99 198.96 31.98ZM140 39.73C137.68 44.39 136.9 49.82 135.35 55.25C130.7 75.42 129.92 76.19 109.75 78.52C77.17 83.18 72.51 93.26 77.17 122.74C80.27 143.68 80.27 144.46 62.43 153.77C33.73 169.28 32.17 180.15 46.14 205.75C56.22 224.36 55.45 225.14 41.48 239.88C39.16 242.21 36.05 245.31 33.73 247.64C33.73 247.64 33.73 246.86 32.95 246.86C22.09 232.12 18.21 209.62 23.64 188.68C43.81 118.86 87.25 65.33 140 39.73ZM53.12 251.51C71.74 232.12 74.07 225.14 60.1 199.54C50.02 180.15 50.02 178.59 70.19 167.73C94.23 154.55 97.34 148.34 92.68 120.41C88.8 98.69 89.58 97.91 112.08 94.04C119.83 92.48 128.37 91.71 134.57 87.83C98.11 134.38 74.84 196.44 73.29 266.25C72.67 266.25 67.7 266.25 67.08 266.25C59.33 266.25 52.34 263.93 46.14 259.27C48.47 256.95 50.79 253.84 53.12 251.51ZM479.01 266.25C440.07 266.25 128.52 266.25 89.58 266.25C92.68 131.27 181.12 23.44 288.17 23.44C391.35 23.44 478.23 125.07 486.77 253.84C486.77 257.72 485.99 261.6 483.67 263.93C482.89 264.7 481.34 266.25 479.01 266.25Z" id="bxSq3frwX"></path><path d="M311.45 71.54C314.55 74.64 319.2 74.64 322.31 71.54C325.41 68.44 325.41 63.78 322.31 60.68C319.2 58.35 314.55 58.35 311.45 60.68C308.34 63.78 308.34 68.44 311.45 71.54Z" id="a1t6AvMXEJ"></path><path d="M347.91 243.76C351.01 246.86 355.67 246.86 358.77 243.76C361.87 240.65 361.87 236 358.77 232.9C355.67 229.79 350.23 229.79 347.91 232.9C344.8 236 344.8 240.65 347.91 243.76Z" id="axCHc9YJx"></path><path d="M411.52 225.14C414.62 228.24 419.28 228.24 422.38 225.14C425.48 222.04 425.48 217.38 422.38 214.28C419.28 211.18 413.85 211.18 411.52 214.28C408.42 217.38 408.42 222.04 411.52 225.14Z" id="a1pYUTDZew"></path><path d="M383.59 172.39C386.7 175.49 391.35 175.49 394.45 172.39C397.56 169.28 397.56 164.63 394.45 161.53C391.35 158.42 385.92 158.42 383.59 161.53C380.49 164.63 380.49 169.28 383.59 172.39Z" id="c7iJn0i8j"></path><path d="M456.51 229.02C459.62 232.12 464.27 232.12 467.37 229.02C470.48 225.91 470.48 221.26 467.37 218.16C464.27 215.05 458.84 215.05 456.51 218.16C453.41 221.26 453.41 225.91 456.51 229.02Z" id="a7a1UVg7H"></path><path d="M435.57 166.18C438.67 169.28 443.33 169.28 446.43 166.18C449.53 163.08 449.53 158.42 446.43 155.32C444.1 152.22 438.67 152.22 435.57 155.32C432.47 158.42 432.47 163.08 435.57 166.18Z" id="i5JzBqDLe2"></path><path d="M402.21 118.86C405.31 121.96 409.97 121.96 413.07 118.86C416.17 115.76 416.17 111.1 413.07 108C409.97 104.9 405.31 104.9 402.21 108C399.11 111.1 399.11 115.76 402.21 118.86Z" id="bhEzhBjYw"></path><path d="M347.91 136.7C351.01 139.81 355.67 139.81 358.77 136.7C361.87 133.6 361.87 128.95 358.77 125.84C355.67 122.74 350.23 122.74 347.91 125.84C344.8 128.95 344.8 133.6 347.91 136.7Z" id="bdBaC5qSs"></path><path d="M359.54 87.83C362.65 90.93 367.3 90.93 370.4 87.83C373.51 84.73 373.51 80.07 370.4 76.97C367.3 73.87 362.65 73.87 359.54 76.97C356.44 80.07 356.44 84.73 359.54 87.83Z" id="c4rAYOCCZ"></path><path d="M307.57 118.86C310.67 121.96 315.33 121.96 318.43 118.86C321.53 115.76 321.53 111.1 318.43 108C315.33 104.9 309.9 104.9 307.57 108C304.47 111.1 304.47 115.76 307.57 118.86Z" id="a2rXwwWwi8"></path><path d="M261.02 71.54C264.13 74.64 268.78 74.64 271.88 71.54C274.99 68.44 274.99 63.78 271.88 60.68C269.56 58.35 264.13 58.35 261.02 60.68C257.92 63.78 257.92 68.44 261.02 71.54Z" id="a5a7O4k1h"></path><path d="M265.68 182.47C268.78 185.58 273.43 185.58 276.54 182.47C279.64 179.37 279.64 174.71 276.54 171.61C273.43 168.51 268.78 168.51 265.68 171.61C262.57 174.71 262.57 179.37 265.68 182.47Z" id="bhVZpY1S1"></path><path d="M307.57 181.7C310.67 184.8 315.33 184.8 318.43 181.7C321.53 178.59 321.53 173.94 318.43 170.84C315.33 168.51 309.9 168.51 307.57 170.84C304.47 173.94 304.47 178.59 307.57 181.7Z" id="bxzW1veVm"></path><path d="M347.91 199.54C351.01 202.64 355.67 202.64 358.77 199.54C361.87 196.44 361.87 191.78 358.77 188.68C355.67 185.58 350.23 185.58 347.91 188.68C344.8 191.78 344.8 196.44 347.91 199.54Z" id="htg6sSO5u"></path><path d="M265.68 118.86C268.78 121.96 273.43 121.96 276.54 118.86C279.64 115.76 279.64 111.1 276.54 108C273.43 104.9 268.78 104.9 265.68 108C262.57 111.1 262.57 115.76 265.68 118.86Z" id="n231pxJ00Q"></path><path d="M212.93 87.83C216.03 90.93 220.68 90.93 223.79 87.83C226.89 84.73 226.89 80.07 223.79 76.97C221.46 73.87 216.03 73.87 212.93 76.97C209.82 80.07 209.82 84.73 212.93 87.83Z" id="aynuIEdnr"></path><path d="M136.9 166.18C140 169.28 144.66 169.28 147.76 166.18C150.87 163.08 150.87 158.42 147.76 155.32C145.43 152.22 140 152.22 136.9 155.32C133.8 158.42 133.8 163.08 136.9 166.18Z" id="a2r8apzDno"></path><path d="M225.34 243.76C228.44 246.86 233.1 246.86 236.2 243.76C239.3 240.65 239.3 236 236.2 232.9C233.1 229.79 228.44 229.79 225.34 232.9C222.23 236 222.23 240.65 225.34 243.76Z" id="b5zdN0cpPw"></path><path d="M189.65 235.22C192.76 238.33 197.41 238.33 200.51 235.22C203.62 232.12 203.62 227.47 200.51 224.36C197.41 221.26 192.76 221.26 189.65 224.36C186.55 227.47 186.55 232.12 189.65 235.22Z" id="b2XMF7bVWO"></path><path d="M170.26 118.86C173.36 121.96 178.02 121.96 181.12 118.86C184.22 115.76 184.22 111.1 181.12 108C178.79 104.9 173.36 104.9 170.26 108C167.16 111.1 167.16 115.76 170.26 118.86Z" id="c18Kglpaq"></path><path d="M116.73 229.02C119.83 232.12 124.49 232.12 127.59 229.02C130.7 225.91 130.7 221.26 127.59 218.16C124.49 215.05 119.83 215.05 116.73 218.16C113.63 221.26 113.63 225.91 116.73 229.02Z" id="b6IV1DGsfZ"></path><path d="M161.73 225.14C164.83 228.24 169.48 228.24 172.59 225.14C175.69 222.04 175.69 217.38 172.59 214.28C169.48 211.18 164.83 211.18 161.73 214.28C158.62 217.38 158.62 222.04 161.73 225.14Z" id="a22wz2GZpv"></path><path d="M225.34 136.7C228.44 139.81 233.1 139.81 236.2 136.7C239.3 133.6 239.3 128.95 236.2 125.84C233.1 122.74 228.44 122.74 225.34 125.84C222.23 128.95 222.23 133.6 225.34 136.7Z" id="a19TGpDGYD"></path><path d="M189.65 172.39C192.76 175.49 197.41 175.49 200.51 172.39C203.62 169.28 203.62 164.63 200.51 161.53C197.41 158.42 192.76 158.42 189.65 161.53C186.55 164.63 186.55 169.28 189.65 172.39Z" id="d12Sxk5mqs"></path><path d="M225.34 199.54C228.44 202.64 233.1 202.64 236.2 199.54C239.3 196.44 239.3 191.78 236.2 188.68C233.1 185.58 228.44 185.58 225.34 188.68C222.23 191.78 222.23 196.44 225.34 199.54Z" id="b2DRVxVYH9"></path><path d="M265.68 225.91C268.78 229.02 273.43 229.02 276.54 225.91C279.64 222.81 279.64 218.16 276.54 215.05C273.43 212.73 268.78 212.73 265.68 215.05C262.57 218.16 262.57 222.81 265.68 225.91Z" id="e19OkdBPEm"></path><path d="M307.57 225.91C310.67 229.02 315.33 229.02 318.43 225.91C321.53 222.81 321.53 218.16 318.43 215.05C315.33 212.73 309.9 212.73 307.57 215.05C304.47 218.16 304.47 222.81 307.57 225.91Z" id="e1KuMA2Tq"></path></defs><g><g><g><use xlink:href="#bxSq3frwX" opacity="1" fill="#000000" fill-opacity="1"></use><g><use xlink:href="#bxSq3frwX" opacity="1" fill-opacity="0" stroke="#000000" stroke-width="1" stroke-opacity="0"></use></g></g><g><use xlink:href="#a1t6AvMXEJ" opacity="1" fill="#000000" fill-opacity="1"></use><g><use xlink:href="#a1t6AvMXEJ" opacity="1" fill-opacity="0" stroke="#000000" stroke-width="1" stroke-opacity="0"></use></g></g><g><use xlink:href="#axCHc9YJx" opacity="1" fill="#000000" fill-opacity="1"></use><g><use xlink:href="#axCHc9YJx" opacity="1" fill-opacity="0" stroke="#000000" stroke-width="1" stroke-opacity="0"></use></g></g><g><use xlink:href="#a1pYUTDZew" opacity="1" fill="#000000" fill-opacity="1"></use><g><use xlink:href="#a1pYUTDZew" opacity="1" fill-opacity="0" stroke="#000000" stroke-width="1" stroke-opacity="0"></use></g></g><g><use xlink:href="#c7iJn0i8j" opacity="1" fill="#000000" fill-opacity="1"></use><g><use xlink:href="#c7iJn0i8j" opacity="1" fill-opacity="0" stroke="#000000" stroke-width="1" stroke-opacity="0"></use></g></g><g><use xlink:href="#a7a1UVg7H" opacity="1" fill="#000000" fill-opacity="1"></use><g><use xlink:href="#a7a1UVg7H" opacity="1" fill-opacity="0" stroke="#000000" stroke-width="1" stroke-opacity="0"></use></g></g><g><use xlink:href="#i5JzBqDLe2" opacity="1" fill="#000000" fill-opacity="1"></use><g><use xlink:href="#i5JzBqDLe2" opacity="1" fill-opacity="0" stroke="#000000" stroke-width="1" stroke-opacity="0"></use></g></g><g><use xlink:href="#bhEzhBjYw" opacity="1" fill="#000000" fill-opacity="1"></use><g><use xlink:href="#bhEzhBjYw" opacity="1" fill-opacity="0" stroke="#000000" stroke-width="1" stroke-opacity="0"></use></g></g><g><use xlink:href="#bdBaC5qSs" opacity="1" fill="#000000" fill-opacity="1"></use><g><use xlink:href="#bdBaC5qSs" opacity="1" fill-opacity="0" stroke="#000000" stroke-width="1" stroke-opacity="0"></use></g></g><g><use xlink:href="#c4rAYOCCZ" opacity="1" fill="#000000" fill-opacity="1"></use><g><use xlink:href="#c4rAYOCCZ" opacity="1" fill-opacity="0" stroke="#000000" stroke-width="1" stroke-opacity="0"></use></g></g><g><use xlink:href="#a2rXwwWwi8" opacity="1" fill="#000000" fill-opacity="1"></use><g><use xlink:href="#a2rXwwWwi8" opacity="1" fill-opacity="0" stroke="#000000" stroke-width="1" stroke-opacity="0"></use></g></g><g><use xlink:href="#a5a7O4k1h" opacity="1" fill="#000000" fill-opacity="1"></use><g><use xlink:href="#a5a7O4k1h" opacity="1" fill-opacity="0" stroke="#000000" stroke-width="1" stroke-opacity="0"></use></g></g><g><use xlink:href="#bhVZpY1S1" opacity="1" fill="#000000" fill-opacity="1"></use><g><use xlink:href="#bhVZpY1S1" opacity="1" fill-opacity="0" stroke="#000000" stroke-width="1" stroke-opacity="0"></use></g></g><g><use xlink:href="#bxzW1veVm" opacity="1" fill="#000000" fill-opacity="1"></use><g><use xlink:href="#bxzW1veVm" opacity="1" fill-opacity="0" stroke="#000000" stroke-width="1" stroke-opacity="0"></use></g></g><g><use xlink:href="#htg6sSO5u" opacity="1" fill="#000000" fill-opacity="1"></use><g><use xlink:href="#htg6sSO5u" opacity="1" fill-opacity="0" stroke="#000000" stroke-width="1" stroke-opacity="0"></use></g></g><g><use xlink:href="#n231pxJ00Q" opacity="1" fill="#000000" fill-opacity="1"></use><g><use xlink:href="#n231pxJ00Q" opacity="1" fill-opacity="0" stroke="#000000" stroke-width="1" stroke-opacity="0"></use></g></g><g><use xlink:href="#aynuIEdnr" opacity="1" fill="#000000" fill-opacity="1"></use><g><use xlink:href="#aynuIEdnr" opacity="1" fill-opacity="0" stroke="#000000" stroke-width="1" stroke-opacity="0"></use></g></g><g><use xlink:href="#a2r8apzDno" opacity="1" fill="#000000" fill-opacity="1"></use><g><use xlink:href="#a2r8apzDno" opacity="1" fill-opacity="0" stroke="#000000" stroke-width="1" stroke-opacity="0"></use></g></g><g><use xlink:href="#b5zdN0cpPw" opacity="1" fill="#000000" fill-opacity="1"></use><g><use xlink:href="#b5zdN0cpPw" opacity="1" fill-opacity="0" stroke="#000000" stroke-width="1" stroke-opacity="0"></use></g></g><g><use xlink:href="#b2XMF7bVWO" opacity="1" fill="#000000" fill-opacity="1"></use><g><use xlink:href="#b2XMF7bVWO" opacity="1" fill-opacity="0" stroke="#000000" stroke-width="1" stroke-opacity="0"></use></g></g><g><use xlink:href="#c18Kglpaq" opacity="1" fill="#000000" fill-opacity="1"></use><g><use xlink:href="#c18Kglpaq" opacity="1" fill-opacity="0" stroke="#000000" stroke-width="1" stroke-opacity="0"></use></g></g><g><use xlink:href="#b6IV1DGsfZ" opacity="1" fill="#000000" fill-opacity="1"></use><g><use xlink:href="#b6IV1DGsfZ" opacity="1" fill-opacity="0" stroke="#000000" stroke-width="1" stroke-opacity="0"></use></g></g><g><use xlink:href="#a22wz2GZpv" opacity="1" fill="#000000" fill-opacity="1"></use><g><use xlink:href="#a22wz2GZpv" opacity="1" fill-opacity="0" stroke="#000000" stroke-width="1" stroke-opacity="0"></use></g></g><g><use xlink:href="#a19TGpDGYD" opacity="1" fill="#000000" fill-opacity="1"></use><g><use xlink:href="#a19TGpDGYD" opacity="1" fill-opacity="0" stroke="#000000" stroke-width="1" stroke-opacity="0"></use></g></g><g><use xlink:href="#d12Sxk5mqs" opacity="1" fill="#000000" fill-opacity="1"></use><g><use xlink:href="#d12Sxk5mqs" opacity="1" fill-opacity="0" stroke="#000000" stroke-width="1" stroke-opacity="0"></use></g></g><g><use xlink:href="#b2DRVxVYH9" opacity="1" fill="#000000" fill-opacity="1"></use><g><use xlink:href="#b2DRVxVYH9" opacity="1" fill-opacity="0" stroke="#000000" stroke-width="1" stroke-opacity="0"></use></g></g><g><use xlink:href="#e19OkdBPEm" opacity="1" fill="#000000" fill-opacity="1"></use><g><use xlink:href="#e19OkdBPEm" opacity="1" fill-opacity="0" stroke="#000000" stroke-width="1" stroke-opacity="0"></use></g></g><g><use xlink:href="#e1KuMA2Tq" opacity="1" fill="#000000" fill-opacity="1"></use><g><use xlink:href="#e1KuMA2Tq" opacity="1" fill-opacity="0" stroke="#000000" stroke-width="1" stroke-opacity="0"></use></g></g></g></g></svg>